<?xml version="1.0" encoding="UTF-8"?><svg id="Calque_1" xmlns="http://www.w3.org/2000/svg" xmlns:xlink="http://www.w3.org/1999/xlink" viewBox="0 0 833.64 232.32"><defs><style>.cls-1{opacity:.9;}.cls-2{clip-path:url(#clippath-2);}.cls-3{opacity:.6;}.cls-4{clip-path:url(#clippath-1);}.cls-5{clip-path:url(#clippath-4);}.cls-6{opacity:.8;}.cls-7{clip-path:url(#clippath);}.cls-8{fill:none;}.cls-9{clip-path:url(#clippath-3);}.cls-10{clip-path:url(#clippath-5);}.cls-11{fill:#1d1d1b;}</style><clipPath id="clippath"><rect class="cls-8" x="17.71" y="22.12" width="810.79" height="204.88"/></clipPath><clipPath id="clippath-1"><rect class="cls-8" x="17.71" y="22.12" width="810.79" height="204.88"/></clipPath><clipPath id="clippath-2"><rect class="cls-8" x="140.12" y="50.58" width="350.6" height="150.71"/></clipPath><clipPath id="clippath-3"><rect class="cls-8" x="105.6" y="48.54" width="398.52" height="212.04"/></clipPath><clipPath id="clippath-4"><rect class="cls-8" x="105.6" y="48.54" width="398.52" height="212.04"/></clipPath><clipPath id="clippath-5"><rect class="cls-8" x="17.71" y="22.12" width="810.79" height="204.88"/></clipPath></defs><g class="cls-7"><g class="cls-4"><path d="m674.09,111.23h-58.22c2.84-6.43,5.59-12.91,8.39-19.37,3.4-7.84,6.79-15.68,10.2-23.51,3.38-7.77,6.78-15.54,10.17-23.31.19-.08.38-.16.57-.24.1.25.21.49.31.74,9.51,21.86,19.03,43.76,28.57,65.69m40.51,62.84c-.74-1.66-1.4-3.13-2.05-4.62-2.65-6.11-5.29-12.23-7.94-18.34-2.16-4.96-4.35-9.89-6.5-14.85-2.74-6.3-5.45-12.62-8.19-18.92-2.11-4.86-4.26-9.7-6.37-14.56-2.02-4.67-3.99-9.36-6.02-14.03-3.51-8.08-7.07-16.15-10.58-24.23-2.55-5.87-5.07-11.76-7.62-17.63-2.71-6.26-5.47-12.5-8.16-18.76-.96-2.23-.91-2.29-3.37-2.25-1.19.02-4.37.07-5.51,0-.37-.03-.74.04-1.1-.01-1.13-.17-1.65.34-2.09,1.38-3.19,7.53-6.44,15.04-9.7,22.55-1.8,4.14-3.67,8.24-5.47,12.38-4.8,11.01-9.58,22.03-14.37,33.05-4.41,10.16-8.8,20.32-13.21,30.47-3.26,7.51-6.57,14.99-9.82,22.5-2.69,6.21-5.32,12.44-7.99,18.66-.16.39-.42.74-.63,1.1-.26-1.31-.26-2.5-.26-3.69,0-26.51,0-53.03,0-79.54,0-9.61-2.18-18.73-6.29-27.38-4.14-8.7-10.25-15.87-17.85-21.72-12.79-9.83-27.33-13.03-43.15-10.6-8.51,1.31-16.28,4.65-23.16,9.8-7.5,5.61-13.58,12.51-17.99,20.81-.23.43-.28,1.04-.99,1.12-.12-.17-.27-.33-.36-.51-3.06-6.24-7.19-11.69-12.26-16.46-4.44-4.17-9.33-7.69-14.83-10.3-10.59-5.02-21.74-6.28-33.25-4.49-8.4,1.31-16.04,4.62-22.93,9.57-4.15,2.99-7.82,6.52-11.04,10.51-.36.45-.61,1.12-1.56,1.1v-16.75h-12.97v102.48c1.88.52,10.4-3.48,11.75-4.05,0-.37,1.16-.55,1.16-.96,0-28.51.08-11.27.05-39.78,0-3.79.2-7.54.87-11.28,1.06-5.91,3.07-11.45,6.3-16.51,2.9-4.53,6.39-8.55,10.62-11.96,2.97-2.39,6.03-4.6,9.48-6.18,7.83-3.59,16.06-4.34,24.51-3.12,3.75.54,7.44,1.4,10.86,3.12,3.34,1.67,6.53,3.57,9.38,6.04,2.91,2.52,5.68,5.18,8.03,8.21,6.44,8.34,9.64,17.84,9.84,28.35.06,3.15.01,6.3.01,9.45,0,26.36,0,52.71,0,79.07v1.88c4.34.27,8.51.07,12.86.06v-3.88c0-26.57-.01-53.14-.02-79.7,0-5.04.19-10.06,1.1-15.04.83-4.58,2.26-8.95,4.43-13.06,3.17-6.01,7.38-11.17,12.74-15.42,2.9-2.3,5.89-4.44,9.24-5.96,7.84-3.57,16.06-4.32,24.52-3.09,3.55.51,7.01,1.38,10.29,2.86,7.26,3.27,13.1,8.36,17.94,14.55,6.49,8.3,9.62,17.85,9.82,28.35.06,3.2.01,6.41.01,9.61,0,26.3,0,52.61,0,78.91v1.79c.81.06,1.43.15,2.05.15,6.15,0,12.31,0,18.46-.04,3.33-.02,3.25-.09,4.54-3.17,2.09-4.95,4.23-9.87,6.36-14.8h0l.76-1.74c.34-.8.69-1.6,1.03-2.4.02-.05.05-.08.07-.12l9.47-21.7h.04c.91-2.16,1.9-4.49,2.87-6.72h69.07c1.43,3.29,2.85,6.56,4.28,9.85h.24s10.15,23.29,10.15,23.29h-.24c2.31,5.33,4.64,10.65,6.93,15.98.45,1.04.98,1.57,2.19,1.54,3.36-.07,6.73-.02,10.1-.03.44,0,.87-.12,1.45-.2"/><path d="m330.63,141.25c.5-2.54.42-3.12-.11-8.62-1.12-7.46-4.85-13.3-11.17-17.5-3.64-2.42-7.64-3.92-11.85-4.97-7.29-1.81-14.57-3.68-21.86-5.48-1.01-.25-2.06-.31-3.09-.45-.21-.03-.43-.03-.62-.09-5.23-1.74-10.54-3.29-15.38-6.04-4.34-2.47-8.27-5.47-11.39-9.34-4.77-5.92-7.89-12.58-8.71-20.25-.92-8.58.33-16.81,4.38-24.42,5.47-10.29,14.15-16.69,25.35-19.78,5.93-1.64,11.98-2.3,18.1-2.15,10.22.25,20.16,2.03,29.66,5.95,5.67,2.34,10.93,5.38,15.92,8.91,1.58,1.12,3.05,2.4,4.56,3.6-.43.85-7.28,7.96-8.41,9.13-1.87-1.08-5.54-3.5-6.42-4.07-4.29-2.8-8.85-5.07-13.72-6.65-5.51-1.8-11.16-2.97-16.97-3.32-4.31-.26-8.62-.3-12.92.12-7.16.7-13.63,3.12-18.95,8.06-3.37,3.13-5.72,7-6.98,11.42-1.33,4.64-1.76,9.38-.68,14.16.88,3.87,2.8,7.26,5.35,10.23,4.39,5.11,9.87,8.58,16.46,10.24,11.05,2.78,22.13,5.48,33.14,8.41,7.58,2.01,14.12,5.93,19.43,11.75,3.56,3.91,5.96,8.49,7.65,13.46,2.81,8.24,2.43,9.84,2.28,13.61-5.24,2-9.59,2.97-13.06,4.12"/><path d="m127.9,130.38c-1.8-2.1-3.78-3.5-4.84-5.23-3.02-4.88-5.82-4.26-1.67,1.99,1.96,2.12,3.23,3.47,4.85,5.12.6,1.21,4.13,1.33,3.53.12l-1.88-2Z"/><g class="cls-3"><g class="cls-2"><path d="m249.77,158c88.38-13.06,157.58-36.42,210.28-89.12-13.4,30.41-34.78,49.95-62.12,68.64-22.72,12.13-38.9,21.96-83.66,31.74-30.97,7.32-61.75,5.25-76.77.62-34.47-6.74-84.17-25.35-71.26-21.38,42.56,15.6,74.38,10.86,83.54,9.51"/></g></g><g class="cls-6"><g class="cls-9"><path d="m126.68,131.48s102.15,50.76,167.51,41.14c138.99-20.46,165.85-105.18,165.85-105.18l3.89,3.5s-28.31,114.49-103.81,140.99c-75.5,26.49-123.61,14.42-165.53-8.11-31.46-16.91-68.82-71-68.82-71l.91-1.33Z"/></g></g><g class="cls-1"><g class="cls-5"><path d="m458.48,69.71c-12.09,33.63-43.4,102.87-101.66,122.97-77.9,26.88-127.4,15.03-170.47-7.32-21.15-10.97-45.47-37.03-59.76-53.74l-.8,1.19s34.33,56.72,68.82,71c41.92,22.53,90.03,34.61,165.53,8.11,75.5-26.49,103.81-140.99,103.81-140.99l-3.9-3.5s-.52.81-1.56,2.28"/></g></g><path d="m125.48,132.69c.16.31,17.85,25.44,17.85,25.44,0,0,.81.57,5.85-2.84,5.05-3.41,6.21-11.07,6.21-11.07l-27.33-14.4-2.58,2.88Z"/><path d="m446.01,81.75s5.18-.76,8.33,2.24c3.14,3,3.84,6.86,3.78,6.54-.05-.32,8.33-24.82,8.33-24.82l-2.76-2-17.69,18.04Z"/><path d="m477.44,46.23c.36-1.24-.75-2.01-2.01-.22-2.91,4.11-3.43,4.93-5.75,8.81-2.19,4.33-1.66,3.19-5.94,8.97-1.73,4.46-3.53,2.66-5.37,7.08.65.05,3.17,5.07,3.83,5.12-.24-.78.29-1.42,1.1-1.73"/></g><rect x="116.58" y="118.68" width="5.97" height="4.43"/><g class="cls-10"><path d="m127.9,130.38c-1.8-2.1-4.78-3.97-5.89-5.93-2.84-4.99-4.77-3.55-.62,2.7"/><path d="m245.19,159.11c4.63-9.28,6.52-19.02,4.68-29.31-1.49-8.36-4.95-15.74-11.24-21.69-5.25-4.96-11.36-8.29-18.3-10.08-9.66-2.49-19.36-4.89-29.05-7.28-3.99-.98-7.91-2.11-11.47-4.26-3.55-2.14-6.74-4.66-9.17-8.05-2.78-3.87-4.7-8.03-4.88-12.9-.3-7.77,1.65-14.8,7.05-20.57,3.66-3.91,8.21-6.5,13.41-7.91,2.69-.73,5.43-1.17,8.22-1.39,6.55-.5,13.03-.17,19.46,1.09,8.07,1.58,15.69,4.32,22.63,8.81.85.55,4.75,2.69,4.75,2.69.78.48,1.61.72,2.03.89,3.59-2.96,7.38-7.17,7.98-8.48-1.43-1.16-2.8-2.38-4.28-3.46-6.27-4.59-13.07-8.23-20.45-10.71-10.18-3.42-20.63-4.85-31.37-4.18-6.41.4-12.62,1.62-18.5,4.22-9.67,4.27-16.69,11.23-20.63,21.06-3.12,7.78-3.85,15.86-2.26,24.12,1.25,6.49,4.2,12.21,8.4,17.23,4.39,5.25,9.96,9,16.29,11.58,3.93,1.6,7.89,3.09,12.14,3.66,1.55.21,3.06.74,4.59,1.12,6.47,1.64,12.93,3.29,19.4,4.92,4.83,1.22,9.41,2.91,13.34,6.14,4.31,3.55,7.43,7.81,8.79,13.28,2.03,8.14.68,15.83-3.17,23.15-2.54,4.24-3.23,5.01-5.51,6.9,7.9.92,17.1-.59,17.1-.59m-129.14-48.4h-57.79c2.78-6.3,5.48-12.63,8.22-18.95,3.4-7.83,6.79-15.67,10.2-23.5,3.4-7.81,6.82-15.61,10.33-23.62.36.47.6.68.71.94,9.43,21.67,18.86,43.35,28.32,65.13m36,52.49c-19.95-45.96-39.87-91.61-59.7-137.33-.94,0-1.79-.05-2.62.01-1.13.08-4.2.09-5.41-.01-.73-.06-1.47-.01-2.27-.01-.99,2.05-64.33,147.03-64.33,148.36.3.03.61.1.91.1,3.68,0,7.36-.01,11.05.01.76,0,1.13-.33,1.39-1,.57-1.47,1.18-2.92,1.81-4.36,2.45-5.62,4.94-11.23,7.35-16.87.08-.18.16-.33.25-.46l8.06-18.47c1.19-2.9,2.74-6.54,4.26-10.06h68.65c2.28,5.26,4.57,10.51,6.86,15.78h-.06l5.66,12.98c.15.2.29.43.41.71,2.87,6.65,5.8,13.27,8.62,19.94.52,1.22,1.13,1.82,2.53,1.8,3.52-.08,7.05-.02,10.57-.03.2,0,.39-.09.8-.18-.44-.97-.87-1.85-1.23-2.75-.36-.92-1.2-1.71-.94-3.02"/><path class="cls-11" d="m818.3,141.7c2.9,3.29,5.56,6.32,8.34,9.48-.93,1.02-1.78,2.01-2.69,2.94-10.27,10.47-22.48,17.48-37.08,19.59-23.69,3.44-43.9-3.53-60.33-21.07-10.83-11.57-17.59-25.18-19.5-40.87-3.7-30.46,5.9-55.69,30.87-74.3,9.7-7.23,20.84-10.91,32.98-11.72,20.9-1.39,38.58,5.47,53.24,20.29,1.45,1.47,2.77,3.08,4.35,4.86-3.1,2.74-6.16,5.43-9.31,8.21-.63-.64-1.83-1.83-2.99-3.06-8.45-8.98-18.53-15.14-30.83-17.02-19.29-2.95-35.86,2.51-49.38,16.71-9.08,9.53-14.75,20.78-16.58,33.82-3.51,24.91,4.88,49.8,29.29,64.98,9.54,5.94,20.16,7.86,31.33,7.12,14.82-.98,26.85-7.45,36.76-18.23.47-.51.91-1.04,1.53-1.75"/></g></g></svg>